<svg xmlns="http://www.w3.org/2000/svg" width="512" height="512" viewBox="0 0 512 512" version="1.1">
	<path d="M 198 77.663 C 154.332 81.938, 119.629 94.501, 108.071 110.218 C 102.442 117.872, 102 121.132, 102 155 C 102 189.968, 102.439 192.809, 108.995 200.257 C 111.198 202.760, 113 205.119, 113 205.500 C 113 205.881, 111.191 208.248, 108.981 210.759 C 102.238 218.420, 101.852 221.115, 102.198 258.184 C 102.496 290.076, 102.532 290.562, 104.911 295.217 C 106.237 297.811, 108.599 301.158, 110.161 302.654 C 111.722 304.150, 113 305.783, 113 306.284 C 113 306.784, 111.191 309.248, 108.981 311.759 C 102.219 319.441, 101.828 322.173, 102.187 359.222 C 102.492 390.683, 102.559 391.620, 104.829 396.229 C 113.057 412.936, 139.621 425.479, 180.789 432.098 C 197.189 434.735, 232.627 435.747, 250.658 434.093 C 299.993 429.567, 335.256 415.068, 344.054 395.690 C 345.804 391.834, 345.958 388.746, 345.978 356.946 L 346 322.393 343.507 317.390 C 342.136 314.639, 339.674 311.104, 338.035 309.534 L 335.056 306.680 338.628 302.727 C 342.779 298.132, 345.947 291.677, 345.978 287.750 C 346 285.035, 345.920 285, 339.608 285 C 333.557 285, 333.182 285.138, 332.563 287.604 C 332.204 289.036, 331.186 291.313, 330.301 292.663 C 328.358 295.628, 317.648 303.413, 312.624 305.513 C 310.631 306.345, 309 307.414, 309 307.886 C 309 308.691, 312.909 318.095, 313.554 318.841 C 313.716 319.028, 316.052 318.075, 318.745 316.722 C 323.608 314.279, 323.658 314.276, 326.266 316.175 C 334.633 322.270, 335.081 331.868, 327.339 339.183 C 303.824 361.403, 228.384 371.129, 170.171 359.445 C 136.131 352.613, 112.814 338.230, 115.554 325.754 C 115.921 324.083, 117.993 320.793, 120.158 318.444 L 124.095 314.174 131.297 317.496 C 151.936 327.016, 178.985 332.600, 209.750 333.691 L 227 334.303 227 327.803 L 227 321.303 209.750 320.699 C 172.328 319.388, 137.393 309.908, 122.876 297.124 C 115.485 290.615, 115 288.859, 115 268.599 C 115 258.919, 115.268 251, 115.596 251 C 115.923 251, 117.426 251.879, 118.936 252.954 C 132.440 262.570, 159.027 270.714, 189.500 274.567 C 202.402 276.199, 242.185 277.148, 243.478 275.855 C 243.833 275.500, 243.809 272.431, 243.424 269.035 L 242.726 262.859 233.113 263.517 C 220.917 264.351, 194.186 262.596, 178.059 259.902 C 147.093 254.731, 122.951 243.975, 117.193 232.786 C 114.134 226.842, 114.847 223.207, 120.210 217.388 L 124.199 213.061 128.133 215.068 C 144.815 223.578, 173.174 230.360, 201.250 232.553 L 210 233.237 210 226.783 L 210 220.330 197.311 219.099 C 162.800 215.753, 134.556 206.985, 122.448 195.859 C 115.436 189.415, 115 187.758, 115 167.532 C 115 157.889, 115.256 150, 115.570 150 C 115.883 150, 118.021 151.288, 120.320 152.863 C 126.550 157.130, 131.487 159.445, 142.652 163.331 C 162.636 170.287, 185.781 174.215, 214.750 175.567 L 230 176.279 230 169.831 L 230 163.383 210.203 162.209 C 199.314 161.564, 185.027 160.124, 178.453 159.011 C 138.739 152.286, 112.891 137.796, 115.685 123.824 C 116.725 118.626, 125.185 110.929, 135.068 106.190 C 157.495 95.435, 187.601 89.982, 224.356 90.017 C 256.298 90.048, 278.676 93.498, 306.040 102.611 C 307.159 102.983, 308.221 101.580, 309.917 97.488 C 311.240 94.295, 311.873 91.489, 311.376 91.013 C 309.977 89.672, 291.370 84.207, 280.976 82.084 C 263.415 78.496, 245.714 76.993, 223 77.161 C 211.175 77.249, 199.925 77.474, 198 77.663 M 277.303 118.250 C 275.019 120.763, 230 209.812, 230 211.817 C 230 212.518, 231.105 214.195, 232.455 215.545 L 234.909 218 257.062 218 C 277.749 218, 279.169 218.116, 278.541 219.750 C 275.402 227.919, 237 349.597, 237 351.375 C 237 354.459, 239.976 357, 243.587 357 C 246.586 357, 247.173 356.405, 394.250 204.392 C 404.426 193.874, 410 187.370, 410 186.011 C 410 184.855, 408.895 182.805, 407.545 181.455 C 405.092 179.001, 405.082 179, 383.633 179 L 362.176 179 373.088 151.781 C 379.090 136.810, 384 123.535, 384 122.281 C 384 121.026, 383.100 119.100, 382 118 C 380.053 116.053, 378.667 116, 329.674 116 L 279.349 116 277.303 118.250 M 266.744 166.503 C 256.435 187.130, 248 204.230, 248 204.503 C 248 204.777, 257.605 205, 269.345 205 C 289.300 205, 290.806 205.128, 292.470 206.967 C 293.449 208.049, 294.249 209.961, 294.248 211.217 C 294.247 212.473, 286.714 236.900, 277.508 265.500 C 268.302 294.100, 260.161 319.525, 259.417 322 L 258.063 326.500 265.323 319 C 346.878 234.758, 386.564 193.561, 386.833 192.863 C 387.017 192.388, 378.649 192, 368.238 192 C 351.171 192, 349.147 191.820, 347.655 190.171 C 346.745 189.165, 346 187.370, 346 186.181 C 346 184.992, 350.097 173.777, 355.105 161.259 C 360.112 148.742, 365.056 136.363, 366.090 133.750 L 367.971 129 326.729 129 L 285.488 129 266.744 166.503 M 127.989 178.801 C 126.366 181.386, 125.029 184, 125.019 184.611 C 124.993 186.116, 138.555 192.203, 149.052 195.397 C 153.755 196.829, 157.856 198, 158.165 198 C 158.836 198, 161.457 186.098, 160.892 185.617 C 160.676 185.433, 157.125 184.276, 153 183.046 C 148.875 181.816, 142.224 179.300, 138.220 177.456 L 130.940 174.102 127.989 178.801 M 127.750 280.898 C 126.237 283.591, 125 286.058, 125 286.381 C 125 288.202, 152.342 299, 156.953 299 C 158.313 299, 159.112 297.579, 160.216 293.197 L 161.678 287.393 151.800 284.180 C 146.368 282.413, 139.606 279.850, 136.774 278.484 C 133.943 277.118, 131.372 276, 131.063 276.001 C 130.753 276.002, 129.262 278.205, 127.750 280.898 M 115 369.532 C 115 389.771, 115.482 391.614, 122.363 397.671 C 133.633 407.590, 153.160 414.614, 183.500 419.661 C 199.438 422.312, 248.435 422.309, 265 419.656 C 297.932 414.381, 322.472 404.519, 330.267 393.427 L 333.046 389.474 332.773 370.797 L 332.500 352.121 327.116 355.516 C 294.360 376.176, 221.313 383.437, 165.462 371.584 C 148.116 367.903, 127.678 360.179, 119.076 354.054 C 117.489 352.924, 115.923 352, 115.596 352 C 115.268 352, 115 359.889, 115 369.532 M 127.585 382.626 C 126.163 385.170, 125 387.588, 125 388 C 125 389.738, 153.481 401, 157.875 401 C 158.730 401, 161.627 389.178, 160.892 388.690 C 160.676 388.547, 156.450 387.148, 151.500 385.581 C 146.550 384.014, 140.082 381.668, 137.126 380.366 C 134.170 379.065, 131.396 378, 130.961 378 C 130.527 378, 129.008 380.082, 127.585 382.626" stroke="none" fill="#000000" fill-rule="evenodd"/>
</svg>